<svg xmlns="http://www.w3.org/2000/svg" xmlns:xlink="http://www.w3.org/1999/xlink" viewBox="0 0 960 480"><g transform="scale(.09524)"><defs><clipPath id="a"><path d="M0 0h6v3H0z"/></clipPath><clipPath id="b"><path d="M0 0v1.5h6V3zm6 0H3v3H0z"/></clipPath><path id="c" d="m0-360 69.4 215.8 212-80.3L156-35.6 351 80.1 125 99.8l31.2 224.5L0 160l-156.2 164.3 31.1-224.5L-351 80l195-115.7-125.5-188.9 212 80.3z"/><path id="d" d="M0-210 54.9-75.5 199.7-65l-111 93.7 34.7 141L0 93.4-123.4 170l34.6-141-111-93.8 145-10.6z"/></defs><path fill="#012169" d="M0 0h10080v5040H0z"/><path stroke="#fff" stroke-width=".6" d="m0 0 6 3m0-3L0 3" clip-path="url(#a)" transform="scale(840)"/><path stroke="#e4002b" stroke-width=".4" d="m0 0 6 3m0-3L0 3" clip-path="url(#b)" transform="scale(840)"/><path stroke="#fff" stroke-width="840" d="M2520 0v2520M0 1260h5040"/><path stroke="#e4002b" stroke-width="504" d="M2520 0v2520M0 1260h5040"/><g fill="#fff"><use xlink:href="#c" transform="matrix(2.1 0 0 2.1 2520 3780)"/><use xlink:href="#c" x="7560" y="4200"/><use xlink:href="#c" x="6300" y="2205"/><use xlink:href="#c" x="7560" y="840"/><use xlink:href="#c" x="8680" y="1869"/><use xlink:href="#d" x="8064" y="2730"/></g></g></svg>
