<svg xmlns="http://www.w3.org/2000/svg" xmlns:xlink="http://www.w3.org/1999/xlink" xml:space="preserve" viewBox="0 0 960 480"><g transform="scale(1.71429)"><path fill="#060" d="M0 0h560v280H0Z"/><path fill="#fff" d="M0 0h560v200H0Z"/><path fill="#c00" d="M0 0h560v80H0Z"/><g transform="translate(-7.88 -233.15)scale(.80638)"><path fill="#f8c300" d="M344.53 457.7a5.57 5.57 0 0 1 10.37 2.63v22.27h4.2v-22.27a5.57 5.57 0 0 1 10.37-2.63 13.14 13.14 0 1 0-24.94 0"/><path fill="#fff" d="M347.51 451.89a8.9 8.9 0 0 1 9.49 4.25 8.9 8.9 0 0 1 9.48-4.25 9.58 9.58 0 0 0-18.97 0"/><path id="a" fill="#f8c300" d="M354.9 473.7a16.93 16.93 0 0 1-28.43 10.83 17.6 17.6 0 0 1-26.61 7.78c1.63 16.23 25.95 12.92 27.76-2.86 7.64 13.41 24.44 9.57 29.36-6.86z"/><use xlink:href="#a" width="100%" height="100%" fill="#f8c300" transform="matrix(-1 0 0 1 714 0)"/><path id="b" fill="#f8c300" d="M338.66 502.51c-3.39 7.33-10.17 8.59-16.1 2.67 0 0 2.38-1.68 4.93-2.15-.47-2.03.5-4.85 1.9-6.38 1.44 1 3.47 2.98 3.98 5.3 3.58-.47 5.3.56 5.3.56"/><use xlink:href="#b" width="100%" height="100%" fill="#f8c300" transform="rotate(9.37 357 664.06)"/><use xlink:href="#b" width="100%" height="100%" fill="#f8c300" transform="rotate(18.74 357 664.06)"/><path fill="none" stroke="#f8c300" stroke-width="7.13" d="M313.8 518.86a151.4 151.4 0 0 1 86.4 0"/></g><path fill="#f8c300" d="m331.16 143.16 2.03 6.24h6.55l-5.3 3.85 2.03 6.24-5.31-3.86-5.3 3.86 2.02-6.24-5.3-3.85h6.55zm-6.86-25.58 2.03 6.24h6.56l-5.3 3.85 2.02 6.24-5.3-3.86-5.3 3.86 2.02-6.24-5.3-3.85h6.55zm-18.72-18.73 2.03 6.24h6.55l-5.3 3.86 2.02 6.23-5.3-3.85-5.3 3.85 2.02-6.23-5.3-3.86h6.55zM280 92l2.03 6.24h6.55l-5.3 3.85 2.03 6.24-5.31-3.86-5.3 3.86 2.02-6.24-5.3-3.85h6.55zm-25.58 6.85 2.03 6.24H263l-5.3 3.86 2.03 6.23-5.31-3.85-5.3 3.85 2.02-6.23-5.3-3.86h6.55zm-18.73 18.73 2.03 6.24h6.56l-5.3 3.85 2.02 6.24-5.3-3.86-5.31 3.86 2.02-6.24-5.3-3.85h6.56zm-6.85 25.58 2.03 6.24h6.55l-5.3 3.85 2.02 6.24-5.3-3.86-5.3 3.86 2.02-6.24-5.3-3.85h6.55z"/></g></svg>
